<svg width="32" height="32" fill="none" xmlns="http://www.w3.org/2000/svg"><path fill="#fff" d="M.02 0h31.96v32H.02z"/><path d="M14.884 18.039c-.154-.002-.306-.004-.454-.004-1.112 0-1.94.097-2.322.547-.039-1.228.056-2.715.97-3.668.635-.66 1.609-.995 2.894-.995 1.997 0 3.188.838 3.188 2.241 0 1.743-1.713 1.889-3.32 1.889a37.405 37.405 0 01-.956-.01z" fill="#ED1C24"/><path fill-rule="evenodd" clip-rule="evenodd" d="M27.228 24.023h-.335c-1.45 0-2.768-.543-3.816-1.568a5.36 5.36 0 01-1.57-3.815v-.524c0-1.45.557-2.805 1.568-3.816 1.048-1.027 2.368-1.57 3.816-1.57h.334c1.45 0 2.805.557 3.816 1.57.376.376.688.796.935 1.246V0H.022v32h31.956V21.209c-.247.452-.56.87-.935 1.246a5.357 5.357 0 01-3.815 1.57v-.002zM18.555 7.652l-2.204 3.276h-.988l2.14-3.276h1.052zM3.625 9.711a.63.63 0 010 1.26c-.337 0-.61-.293-.61-.63s.273-.63.61-.63zm2.253 14.374h-.632A2.197 2.197 0 013.05 21.89v-9.13h1.06v9.13c0 .625.51 1.135 1.136 1.135h.632v1.06zm5.173 0h-1.78a2.197 2.197 0 01-2.195-2.195V7.844h1.06V21.89c0 .625.51 1.135 1.135 1.135h1.78v1.06zm9.25-3.322c-.081 1.244-.836 2.027-1.457 2.46a4.913 4.913 0 01-2.766.862c-1.05 0-2.255-.07-3.229-.589-1.193-.635-1.798-1.833-1.798-3.557v-2.606c0-2.96 1.738-4.524 5.027-4.524 1.42 0 4.105.68 4.105 3.261 0 1.86-1.318 2.927-3.62 2.927-.295 0-.602-.011-.928-.025-.33-.014-.67-.028-.997-.028-1.297 0-2.5.194-2.5 1.602 0 .434.185 2.6 3.818 2.6 1.96 0 3.35-1.238 3.416-2.394v-.046h.935v.05l-.007.007z" fill="#ED1C24"/><path d="M27.228 13.813h-.337c-2.37 0-4.3 1.93-4.3 4.3v.524c0 2.37 1.93 4.3 4.3 4.3h.337c2.382 0 4.32-1.93 4.32-4.3v-.524c0-2.37-1.938-4.3-4.32-4.3z" fill="#ED1C24"/></svg>