<svg width="32" height="32" viewBox="0 0 32 32" fill="none" xmlns="http://www.w3.org/2000/svg">
<rect x="0.0200195" width="31.96" height="32" fill="white"/>
<path d="M14.8836 18.0388C14.7303 18.0368 14.5783 18.0348 14.4304 18.0348C13.3178 18.0348 12.4891 18.1317 12.1083 18.5818C12.069 17.3538 12.1637 15.8673 13.0777 14.9139C13.7125 14.2538 14.6866 13.9191 15.9724 13.9191C17.969 13.9191 19.1601 14.757 19.1601 16.1604C19.1601 17.9032 17.4474 18.0486 15.8408 18.0486C15.6007 18.0486 15.3583 18.0463 15.1206 18.0417C15.0415 18.0409 14.9623 18.0399 14.8836 18.0388Z" fill="#ED1C24"/>
<path fill-rule="evenodd" clip-rule="evenodd" d="M27.2276 24.0225H26.8929C25.4433 24.0225 24.1253 23.4801 23.0773 22.4552C22.0663 21.4441 21.5077 20.0868 21.5077 18.6395V18.1156C21.5077 16.6659 22.064 15.311 23.075 14.2999C24.123 13.2727 25.4433 12.7303 26.8906 12.7303H27.2253C28.6749 12.7303 30.0299 13.2866 31.0409 14.2999C31.4172 14.6762 31.7288 15.0963 31.9758 15.5464V0H0.0219727V32H31.9781V21.2087C31.7311 21.6611 31.4172 22.0789 31.0433 22.4552C30.0322 23.4662 28.6772 24.0248 27.2276 24.0248V24.0225ZM18.5553 7.65202L16.3509 10.9275H15.363L17.5028 7.65202H18.5553ZM3.62523 9.71103C3.98302 9.71103 4.2554 10.0042 4.2554 10.3412C4.2554 10.6782 3.98302 10.9714 3.62523 10.9714C3.28822 10.9714 3.01584 10.6782 3.01584 10.3412C3.01584 10.0042 3.28822 9.71103 3.62523 9.71103ZM5.87814 24.0848H5.24566C4.0338 24.0848 3.05047 23.0992 3.05047 21.8896V12.7603H4.10998V21.8896C4.10998 22.5152 4.62011 23.0253 5.24566 23.0253H5.87814V24.0848ZM11.051 24.0848H9.27134C8.05948 24.0848 7.07615 23.0992 7.07615 21.8896V7.84361H8.13566V21.8896C8.13566 22.5152 8.64579 23.0253 9.27134 23.0253H11.051V24.0848ZM20.3004 20.7632C20.2196 22.0074 19.4648 22.7899 18.8439 23.2238C18.066 23.7709 17.0572 24.0848 16.0785 24.0848C15.0282 24.0848 13.8233 24.0156 12.8492 23.4962C11.6558 22.8614 11.051 21.6634 11.051 19.9391V17.333C11.051 14.3738 12.7892 12.8088 16.0785 12.8088C17.4981 12.8088 20.1827 13.4897 20.1827 16.0704C20.1827 17.9309 18.8646 18.9973 16.5633 18.9973C16.2678 18.9973 15.9608 18.9858 15.6353 18.9719C15.3052 18.9581 14.9659 18.9442 14.6381 18.9442C13.3409 18.9442 12.1383 19.1381 12.1383 20.5462C12.1383 20.9802 12.3229 23.1453 15.9562 23.1453C17.9159 23.1453 19.3055 21.9081 19.3725 20.7516V20.7055H20.3073V20.7563L20.3004 20.7632Z" fill="#ED1C24"/>
<path d="M27.2277 13.8129H26.8907C24.5201 13.8129 22.5903 15.7426 22.5903 18.1132V18.6372C22.5903 21.0078 24.5201 22.9376 26.8907 22.9376H27.2277C29.6099 22.9376 31.5489 21.0078 31.5489 18.6372V18.1132C31.5489 15.7426 29.6099 13.8129 27.2277 13.8129Z" fill="#ED1C24"/>
</svg>
